arm28_optimize_states
version=1
nRows=13
nColumns=21
inDegrees=yes

# SIMM Motion File Header:
name arm28_optimize_states
datacolumns 21
datarows 13
otherdata 1
range 0.46714172 0.46942828
endheader
time	r_shoulder_elev	r_elbow_flex	r_shoulder_elev_u	r_elbow_flex_u	TRIlong.activation	TRIlong.fiber_length	TRIlat.activation	TRIlat.fiber_length	TRImed.activation	TRImed.fiber_length	BIClong.activation	BIClong.fiber_length	BICshort.activation	BICshort.fiber_length	BRA.activation	BRA.fiber_length	DeltAnt.activation	DeltAnt.fiber_length	DeltPost.activation	DeltPost.fiber_length
      0.46714172	     -6.77410518	     -0.01945281	    185.53645973	      0.42064921	      0.01008755	      0.13254195	      0.01008755	      0.07065082	      0.01008755	      0.06568770	      0.01008755	      0.14730266	      0.01008755	      0.14930911	      0.01008755	      0.08698222	      0.01008755	      0.16625284	      0.01008755	      0.10264258
      0.46733553	     -6.73814072	     -0.01937087	    185.59345182	      0.42561696	      0.01008733	      0.13256452	      0.01008733	      0.07065085	      0.01008733	      0.06568772	      0.01008733	      0.14729350	      0.01008733	      0.14930080	      0.01008733	      0.08698223	      0.01008733	      0.16623246	      0.01008733	      0.10267741
      0.46752935	     -6.70216521	     -0.01928807	    185.65122382	      0.42802887	      0.01008712	      0.13258709	      0.01008712	      0.07065088	      0.01008712	      0.06568775	      0.01008712	      0.14728434	      0.01008712	      0.14929251	      0.01008712	      0.08698224	      0.01008712	      0.16621206	      0.01008712	      0.10271048
      0.46772316	     -6.66617860	     -0.01920468	    185.70715469	      0.43349024	      0.01008690	      0.13260968	      0.01008690	      0.07065090	      0.01008690	      0.06568778	      0.01008690	      0.14727517	      0.01008690	      0.14928424	      0.01008690	      0.08698224	      0.01008690	      0.16619166	      0.01008690	      0.10274558
      0.46791697	     -6.63018112	     -0.01912036	    185.76426651	      0.43554159	      0.01008668	      0.13263228	      0.01008668	      0.07065093	      0.01008668	      0.06568781	      0.01008668	      0.14726600	      0.01008668	      0.14927598	      0.01008668	      0.08698225	      0.01008668	      0.16617125	      0.01008668	      0.10277837
      0.46811078	     -6.59417270	     -0.01903549	    185.81912607	      0.44152446	      0.01008647	      0.13265488	      0.01008647	      0.07065096	      0.01008647	      0.06568783	      0.01008647	      0.14725682	      0.01008647	      0.14926773	      0.01008647	      0.08698225	      0.01008647	      0.16615082	      0.01008647	      0.10281376
      0.46827743	     -6.56320169	     -0.01896173	    185.86747420	      0.44344932	      0.01008628	      0.13267433	      0.01008628	      0.07065098	      0.01008628	      0.06568786	      0.01008628	      0.14724892	      0.01008628	      0.14926066	      0.01008628	      0.08698226	      0.01008628	      0.16613325	      0.01008628	      0.10284187
      0.46844408	     -6.53222273	     -0.01888748	    185.91440018	      0.44776222	      0.01008610	      0.13269379	      0.01008610	      0.07065101	      0.01008610	      0.06568788	      0.01008610	      0.14724102	      0.01008610	      0.14925359	      0.01008610	      0.08698226	      0.01008610	      0.16611567	      0.01008610	      0.10287144
      0.46867037	     -6.49014497	     -0.01878556	    185.97821531	      0.45236974	      0.01008585	      0.13272022	      0.01008585	      0.07065104	      0.01008585	      0.06568791	      0.01008585	      0.14723029	      0.01008585	      0.14924402	      0.01008585	      0.08698227	      0.01008585	      0.16609179	      0.01008585	      0.10291070
      0.46886622	     -6.45371586	     -0.01869648	    186.03215760	      0.45814311	      0.01008563	      0.13274311	      0.01008563	      0.07065107	      0.01008563	      0.06568794	      0.01008563	      0.14722099	      0.01008563	      0.14923575	      0.01008563	      0.08698228	      0.01008563	      0.16607111	      0.01008563	      0.10294585
      0.46906207	     -6.41727618	     -0.01860634	    186.08687538	      0.46136160	      0.01008541	      0.13276600	      0.01008541	      0.07065110	      0.01008541	      0.06568797	      0.01008541	      0.14721169	      0.01008541	      0.14922750	      0.01008541	      0.08698228	      0.01008541	      0.16605042	      0.01008541	      0.10297924
      0.46925792	     -6.38082589	     -0.01851546	    186.13964552	      0.46784803	      0.01008520	      0.13278891	      0.01008520	      0.07065113	      0.01008520	      0.06568800	      0.01008520	      0.14720239	      0.01008520	      0.14921926	      0.01008520	      0.08698229	      0.01008520	      0.16602972	      0.01008520	      0.10301481
      0.46942828	     -6.34911019	     -0.01843550	    186.18657566	      0.47056943	      0.01008501	      0.13280885	      0.01008501	      0.07065115	      0.01008501	      0.06568803	      0.01008501	      0.14719429	      0.01008501	      0.14921211	      0.01008501	      0.08698229	      0.01008501	      0.16601170	      0.01008501	      0.10304363
